<svg id="web-programming" xmlns="http://www.w3.org/2000/svg" width="68.006" height="60" viewBox="0 0 68.006 60">
  <path id="Контур_50" data-name="Контур 50" d="M123.387,195.608a1.118,1.118,0,0,1-.727-.268l-7.265-6.186a1.123,1.123,0,0,1,0-1.71l7.265-6.186a1.122,1.122,0,1,1,1.455,1.709l-6.261,5.332,6.261,5.332a1.123,1.123,0,0,1-.729,1.978Zm0,0" transform="translate(-96.555 -151.96)" fill="#fff"/>
  <path id="Контур_51" data-name="Контур 51" d="M250.831,195.608a1.123,1.123,0,0,1-.729-1.978l6.261-5.332-6.261-5.332a1.122,1.122,0,0,1,1.455-1.709l7.265,6.186a1.123,1.123,0,0,1,0,1.71l-7.265,6.186a1.118,1.118,0,0,1-.727.268Zm0,0" transform="translate(-209.657 -151.96)" fill="#fff"/>
  <path id="Контур_52" data-name="Контур 52" d="M190.078,176.769a1.142,1.142,0,0,1-.233-.024,1.123,1.123,0,0,1-.867-1.33l4.528-21.5a1.123,1.123,0,0,1,2.2.463l-4.528,21.5A1.123,1.123,0,0,1,190.078,176.769Zm0,0" transform="translate(-158.647 -128.481)" fill="#fff"/>
  <path id="Контур_53" data-name="Контур 53" d="M60.467,60H7.538A7.547,7.547,0,0,1,0,52.462V7.538A7.547,7.547,0,0,1,7.538,0H60.467a7.547,7.547,0,0,1,7.538,7.538V52.462A7.547,7.547,0,0,1,60.467,60ZM7.538,2.245A5.3,5.3,0,0,0,2.245,7.538V52.462a5.3,5.3,0,0,0,5.293,5.293H60.467a5.3,5.3,0,0,0,5.293-5.293V7.538a5.3,5.3,0,0,0-5.293-5.293Zm0,0" fill="#fff"/>
  <path id="Контур_54" data-name="Контур 54" d="M66.883,100.335H1.123a1.123,1.123,0,0,1,0-2.245h65.76a1.123,1.123,0,0,1,0,2.245Zm0,0" transform="translate(0 -82.357)" fill="#fff"/>
  <path id="Контур_55" data-name="Контур 55" d="M101,41.4a3.553,3.553,0,1,1,3.553-3.553A3.558,3.558,0,0,1,101,41.4Zm0-4.861a1.308,1.308,0,1,0,1.308,1.308A1.309,1.309,0,0,0,101,36.535Zm0,0" transform="translate(-81.82 -28.79)" fill="#fff"/>
  <path id="Контур_56" data-name="Контур 56" d="M32.94,41.18a3.553,3.553,0,1,1,3.553-3.553A3.557,3.557,0,0,1,32.94,41.18Zm0-4.861a1.308,1.308,0,1,0,1.308,1.308A1.31,1.31,0,0,0,32.94,36.32Zm0,0" transform="translate(-24.673 -28.609)" fill="#fff"/>
  <path id="Контур_57" data-name="Контур 57" d="M169.068,41.609a3.553,3.553,0,1,1,3.553-3.553A3.557,3.557,0,0,1,169.068,41.609Zm0-4.861a1.308,1.308,0,1,0,1.308,1.308A1.309,1.309,0,0,0,169.068,36.749Zm0,0" transform="translate(-138.968 -28.97)" fill="#fff"/>
</svg>
