<svg xmlns="http://www.w3.org/2000/svg" width="30" height="30" viewBox="0 0 30 30">
  <g id="Icon_photo_" data-name="Icon &quot;photo&quot;" transform="translate(-1243 -4350)">
    <circle id="Эллипс_26" data-name="Эллипс 26" cx="15" cy="15" r="15" transform="translate(1243 4350)" fill="#c42828"/>
    <path id="phone-call" d="M11.755,3.981A3.727,3.727,0,0,1,14.7,6.925M11.755,1a6.708,6.708,0,0,1,5.925,5.918m-.745,5.948V15.1a1.491,1.491,0,0,1-1.625,1.491A14.75,14.75,0,0,1,8.878,14.3,14.534,14.534,0,0,1,4.406,9.832,14.75,14.75,0,0,1,2.118,3.37,1.491,1.491,0,0,1,3.6,1.745H5.837A1.491,1.491,0,0,1,7.328,3.027,9.57,9.57,0,0,0,7.85,5.122a1.491,1.491,0,0,1-.335,1.573l-.947.947a11.925,11.925,0,0,0,4.472,4.472l.947-.947a1.491,1.491,0,0,1,1.573-.335,9.57,9.57,0,0,0,2.094.522,1.491,1.491,0,0,1,1.282,1.513Z" transform="translate(1248.104 4356.201)" fill="none" stroke="#fff" stroke-linecap="round" stroke-linejoin="round" stroke-width="1.4"/>
  </g>
</svg>
