<svg xmlns="http://www.w3.org/2000/svg" width="60" height="60" viewBox="0 0 60 60">
  <g id="Layer_22" data-name="Layer 22" transform="translate(-1 -1)">
    <path id="Контур_58" data-name="Контур 58" d="M56.161,1H19.387a4.839,4.839,0,0,0-4.839,4.839v2.9H5.839A4.839,4.839,0,0,0,1,13.581V42.613a4.839,4.839,0,0,0,4.839,4.839H19.387v5.806H17.452A4.839,4.839,0,0,0,12.613,58.1v1.935a.968.968,0,0,0,.968.968H38.742a.968.968,0,0,0,.968-.968V58.1a4.839,4.839,0,0,0-4.839-4.839H32.935V47.452H46.484a4.839,4.839,0,0,0,4.839-4.839V35.839h4.839A4.839,4.839,0,0,0,61,31V5.839A4.839,4.839,0,0,0,56.161,1ZM19.387,2.935H56.161a2.9,2.9,0,0,1,2.9,2.9v.968H16.484V5.839A2.9,2.9,0,0,1,19.387,2.935ZM37.774,58.1v.968H14.548V58.1a2.9,2.9,0,0,1,2.9-2.9H34.871A2.9,2.9,0,0,1,37.774,58.1ZM31,53.258H21.323V47.452H31Zm15.484-7.742H5.839a2.9,2.9,0,0,1-2.9-2.9v-2.9H49.387v2.9A2.9,2.9,0,0,1,46.484,45.516Zm2.9-7.742H2.935V13.581a2.9,2.9,0,0,1,2.9-2.9h8.71V31a4.839,4.839,0,0,0,4.839,4.839h30ZM56.161,33.9H19.387a2.9,2.9,0,0,1-2.9-2.9V8.742H59.065V31A2.9,2.9,0,0,1,56.161,33.9Z" fill="#fff"/>
    <path id="Контур_59" data-name="Контур 59" d="M47,43h1.935v1.935H47Z" transform="translate(-1.484 -1.355)" fill="#fff"/>
    <path id="Контур_60" data-name="Контур 60" d="M43,43h1.935v1.935H43Z" transform="translate(-1.355 -1.355)" fill="#fff"/>
    <path id="Контур_61" data-name="Контур 61" d="M39,43h1.935v1.935H39Z" transform="translate(-1.226 -1.355)" fill="#fff"/>
    <path id="Контур_62" data-name="Контур 62" d="M56.742,11H19.968a.968.968,0,0,0-.968.968V31.323a.968.968,0,0,0,.968.968H56.742a.968.968,0,0,0,.968-.968V11.968A.968.968,0,0,0,56.742,11Zm-30,17.419h3.871V26.484H26.742V24.548h1.935V22.613H26.742V20.677h1.935V18.742H26.742V16.806h5.806V30.355H26.742Zm14.623-5.971a1.645,1.645,0,0,1-.706.165h-.735a1.645,1.645,0,0,1-.706-.165,1.558,1.558,0,0,1-.861-1.4,1.181,1.181,0,0,1,.658-1.065,2.313,2.313,0,0,0,1.277-1.819l1.287,1.287a2.245,2.245,0,0,1,.648,1.6,1.558,1.558,0,0,1-.861,1.4Zm-2.042,2.032a4.065,4.065,0,0,0,.6.068h.735a4.065,4.065,0,0,0,.6-.068v5.874H39.323Zm8.71-1.868h1.935v7.742H48.032Zm.377-1.935L49,18.9l.59,1.781Zm7.365,9.677H51.9v-8.71a1.152,1.152,0,0,0,0-.31l-1.935-5.806a.968.968,0,0,0-1.839,0l-1.935,5.806a1.152,1.152,0,0,0-.1.31v8.71h-2.9v-6.9a3.474,3.474,0,0,0,.968-2.41,4.132,4.132,0,0,0-1.229-2.961l-2.9-2.9a.991.991,0,0,0-1.674.658v2.081a.377.377,0,0,1-.2.329,3.116,3.116,0,0,0-1.732,2.8,3.474,3.474,0,0,0,.968,2.41v6.9h-2.9V15.839a.968.968,0,0,0-.968-.968H25.774a.968.968,0,0,0-.968.968V30.355H20.935V12.935H55.774Z" transform="translate(-0.581 -0.323)" fill="#fff"/>
  </g>
</svg>
