<svg xmlns="http://www.w3.org/2000/svg" width="60" height="60" viewBox="0 0 60 60">
  <g id="icon_scroll-down_" data-name="icon (scroll-down)" transform="translate(-70 -550)">
    <g id="Эллипс_25" data-name="Эллипс 25" transform="translate(70 550)" fill="#1d1d1d" stroke="#fff" stroke-width="2">
      <circle cx="30" cy="30" r="30" stroke="none"/>
      <circle cx="30" cy="30" r="29" fill="none"/>
    </g>
    <path id="scroll" d="M155.091,5.344a.893.893,0,0,1-.645-.277l-2.8-2.914a.884.884,0,0,0-1.286,0l-2.8,2.914a.89.89,0,0,1-1.286.005.958.958,0,0,1-.005-1.326l2.8-2.914a2.663,2.663,0,0,1,3.868,0l2.8,2.914a.958.958,0,0,1-.005,1.326A.892.892,0,0,1,155.091,5.344Zm-2.157,17.824,2.8-2.914a.958.958,0,0,0-.005-1.326.89.89,0,0,0-1.286.005l-2.8,2.914a.884.884,0,0,1-1.286,0l-2.8-2.914a.89.89,0,0,0-1.286-.005.958.958,0,0,0-.005,1.326l2.8,2.914a2.663,2.663,0,0,0,3.868,0Zm1.2-11.215a3.183,3.183,0,1,0-3.182,3.281A3.236,3.236,0,0,0,154.136,11.953Zm-1.818,0a1.364,1.364,0,1,1-1.364-1.406A1.387,1.387,0,0,1,152.318,11.953Z" transform="translate(-51 568)" fill="#fff"/>
  </g>
</svg>
