<svg xmlns="http://www.w3.org/2000/svg" width="60" height="60" viewBox="0 0 60 60">
  <g id="code" transform="translate(-1 -1)">
    <path id="Контур_63" data-name="Контур 63" d="M53.258,34.677a8.745,8.745,0,0,0-7,3.534,3.031,3.031,0,0,1-2.419,1.3H36.965l-1.758-.592a16.343,16.343,0,0,0-1.478-3.566l1.2-2.428-5.088-5.088-2.428,1.2a16.323,16.323,0,0,0-3.566-1.478L22.985,25h-7.2l-.865,2.567a16.343,16.343,0,0,0-3.566,1.478l-2.428-1.2L3.84,32.93l1.2,2.428a16.323,16.323,0,0,0-1.478,3.566L1,39.789v7.2l2.567.865a16.343,16.343,0,0,0,1.478,3.566l-1.2,2.428L8.93,58.934l2.428-1.2a16.323,16.323,0,0,0,3.566,1.478l.865,2.566h7.2l.865-2.567a16.343,16.343,0,0,0,3.566-1.478l2.428,1.2,5.088-5.088-1.2-2.428a16.323,16.323,0,0,0,1.478-3.566l1.757-.592h6.873a3.031,3.031,0,0,1,2.419,1.3,8.769,8.769,0,0,0,14.612-.82L61,47.518v-2.2H54.931a.706.706,0,0,1-.705-.705V42.156a.706.706,0,0,1,.705-.7H61v-2.2l-.131-.225A8.806,8.806,0,0,0,53.258,34.677ZM35.839,45.6l-2.247.757-.127.516a14.362,14.362,0,0,1-1.663,4.01l-.276.455,1.055,2.125-3.123,3.123-2.125-1.055-.455.276a14.42,14.42,0,0,1-4.01,1.663l-.516.127L21.6,59.839H17.18l-.757-2.247-.516-.127A14.362,14.362,0,0,1,11.9,55.8l-.455-.276L9.317,56.581,6.194,53.458l1.055-2.125-.276-.455a14.42,14.42,0,0,1-1.663-4.01l-.127-.516L2.935,45.6V41.18l2.247-.757.127-.516A14.362,14.362,0,0,1,6.972,35.9l.276-.455L6.193,33.317l3.123-3.123,2.125,1.055.455-.276a14.42,14.42,0,0,1,4.01-1.663l.516-.127.757-2.248h4.416l.757,2.247.516.127a14.362,14.362,0,0,1,4.01,1.663l.455.276,2.125-1.055,3.123,3.123-1.055,2.125.276.455a14.42,14.42,0,0,1,1.663,4.01l.127.516,2.248.757Zm19.093-6.079a2.644,2.644,0,0,0-2.641,2.641v2.461a2.643,2.643,0,0,0,2.641,2.64h3.954a6.88,6.88,0,0,1-5.626,2.9,6.711,6.711,0,0,1-5.444-2.749,4.952,4.952,0,0,0-3.977-2.089H37.774V41.452h6.064a4.945,4.945,0,0,0,3.975-2.089,6.714,6.714,0,0,1,5.445-2.749,6.88,6.88,0,0,1,5.626,2.9Z" transform="translate(0 -0.774)" fill="#fff"/>
    <path id="Контур_64" data-name="Контур 64" d="M19.581,31A12.581,12.581,0,1,0,32.161,43.581,12.6,12.6,0,0,0,19.581,31Zm0,23.226A10.645,10.645,0,1,1,30.226,43.581,10.658,10.658,0,0,1,19.581,54.226Z" transform="translate(-0.194 -0.968)" fill="#fff"/>
    <path id="Контур_65" data-name="Контур 65" d="M23.293,40.661l3.187,3.187-3.187,3.187L24.661,48.4l4.555-4.555-4.555-4.555Z" transform="translate(-0.719 -1.235)" fill="#fff"/>
    <path id="Контур_66" data-name="Контур 66" d="M13.323,43.848l3.187-3.187-1.368-1.368-4.555,4.555L15.141,48.4l1.368-1.368Z" transform="translate(-0.309 -1.235)" fill="#fff"/>
    <path id="Контур_67" data-name="Контур 67" d="M0,0H16.537V1.935H0Z" transform="translate(15.563 50.013) rotate(-69.444)" fill="#fff"/>
    <path id="Контур_68" data-name="Контур 68" d="M26.935,7.419a.484.484,0,0,1-.484.484H25V9.839h1.452a.484.484,0,0,1,.484.484,2.423,2.423,0,0,0,2.419,2.419h1.452V10.806H29.355a.484.484,0,0,1-.484-.484,2.391,2.391,0,0,0-.5-1.452,2.391,2.391,0,0,0,.5-1.452.484.484,0,0,1,.484-.484h1.452V5H29.355A2.423,2.423,0,0,0,26.935,7.419Z" transform="translate(-0.774 -0.129)" fill="#fff"/>
    <path id="Контур_69" data-name="Контур 69" d="M56.871,13.419A2.423,2.423,0,0,0,54.452,11H53v1.935h1.452a.484.484,0,0,1,.484.484,2.391,2.391,0,0,0,.5,1.452,2.391,2.391,0,0,0-.5,1.452.484.484,0,0,1-.484.484H53v1.935h1.452a2.423,2.423,0,0,0,2.419-2.419.484.484,0,0,1,.484-.484h1.452V13.9H57.355A.484.484,0,0,1,56.871,13.419Z" transform="translate(-1.677 -0.323)" fill="#fff"/>
    <path id="Контур_70" data-name="Контур 70" d="M33,5h1.935V6.935H33Z" transform="translate(-1.032 -0.129)" fill="#fff"/>
    <path id="Контур_71" data-name="Контур 71" d="M37,5H50.548V6.935H37Z" transform="translate(-1.161 -0.129)" fill="#fff"/>
    <path id="Контур_72" data-name="Контур 72" d="M33,9H50.419v1.935H33Z" transform="translate(-1.032 -0.258)" fill="#fff"/>
    <path id="Контур_73" data-name="Контур 73" d="M33,13H50.419v1.935H33Z" transform="translate(-1.032 -0.387)" fill="#fff"/>
    <path id="Контур_74" data-name="Контур 74" d="M49,17h1.935v1.935H49Z" transform="translate(-1.548 -0.516)" fill="#fff"/>
    <path id="Контур_75" data-name="Контур 75" d="M33,17H46.548v1.935H33Z" transform="translate(-1.032 -0.516)" fill="#fff"/>
    <path id="Контур_76" data-name="Контур 76" d="M56.806,1H25.839A4.844,4.844,0,0,0,21,5.839V17.452a4.844,4.844,0,0,0,4.839,4.839H41.323v3.47a2.336,2.336,0,0,0,3.988,1.652l5.122-5.122h6.374a4.844,4.844,0,0,0,4.839-4.839V5.839A4.844,4.844,0,0,0,56.806,1Zm2.9,16.452a2.907,2.907,0,0,1-2.9,2.9H49.632l-5.689,5.689a.416.416,0,0,1-.684-.284V20.355H25.839a2.907,2.907,0,0,1-2.9-2.9V5.839a2.907,2.907,0,0,1,2.9-2.9H56.806a2.907,2.907,0,0,1,2.9,2.9Z" transform="translate(-0.645)" fill="#fff"/>
  </g>
</svg>
