<svg xmlns="http://www.w3.org/2000/svg" width="60" height="60" viewBox="0 0 60 60">
  <g id="_11-call_center_support" data-name="11-call center support" transform="translate(-4 -4)">
    <g id="linear_color" data-name="linear color" transform="translate(4 4)">
      <path id="Контур_48" data-name="Контур 48" d="M46.857,25.1V21.45A1.429,1.429,0,0,0,45.6,20.032l-3.019-.373-.945-2.282,1.87-2.4a1.429,1.429,0,0,0-.116-1.889L37.767,7.464a1.429,1.429,0,0,0-1.889-.116l-2.4,1.87L31.2,8.273l-.373-3.019A1.429,1.429,0,0,0,29.407,4H21.45a1.429,1.429,0,0,0-1.418,1.254l-.373,3.019-2.282.945-2.4-1.87a1.429,1.429,0,0,0-1.889.116L7.464,13.09a1.429,1.429,0,0,0-.116,1.889l1.87,2.4-.945,2.282-3.019.373A1.429,1.429,0,0,0,4,21.45v7.957a1.429,1.429,0,0,0,1.254,1.418l3.019.373.945,2.282-1.87,2.4a1.429,1.429,0,0,0,.116,1.889l5.626,5.626a1.429,1.429,0,0,0,1.889.116l2.4-1.87,2.282.945.373,3.019a1.429,1.429,0,0,0,1.418,1.253H25.1A19.524,19.524,0,1,0,46.857,25.1ZM22.393,41.408a1.429,1.429,0,0,0-.871-1.145L17.7,38.681a1.429,1.429,0,0,0-1.425.193l-2.06,1.606-3.84-3.84,1.606-2.06a1.429,1.429,0,0,0,.193-1.425l-1.582-3.82a1.429,1.429,0,0,0-1.145-.871l-2.591-.32V22.713l2.592-.32a1.429,1.429,0,0,0,1.145-.871l1.582-3.82a1.429,1.429,0,0,0-.193-1.425l-1.606-2.06,3.84-3.84,2.06,1.606a1.429,1.429,0,0,0,1.425.193l3.82-1.582a1.429,1.429,0,0,0,.871-1.145l.32-2.591h5.431l.32,2.592a1.429,1.429,0,0,0,.871,1.145l3.82,1.582a1.429,1.429,0,0,0,1.425-.193l2.06-1.606,3.84,3.84-1.606,2.06a1.429,1.429,0,0,0-.193,1.425l1.582,3.82a1.429,1.429,0,0,0,1.145.871l2.591.32v2.245A19.393,19.393,0,0,0,36.193,26.8a10.869,10.869,0,1,0-9.4,9.4,19.393,19.393,0,0,0-1.84,7.8H22.713ZM29,32.588A8,8,0,1,1,32.588,29,19.694,19.694,0,0,0,29,32.588ZM44.476,61.143A16.667,16.667,0,1,1,61.143,44.476,16.685,16.685,0,0,1,44.476,61.143Z" transform="translate(-4 -4)" fill="#fff"/>
      <path id="Контур_49" data-name="Контур 49" d="M253.238,238.476h-2.381v-1.429a9.048,9.048,0,1,0-18.1,0v1.429h-2.381A2.384,2.384,0,0,0,228,240.857v5A2.145,2.145,0,0,0,230.143,248h2.619v.476a4.29,4.29,0,0,0,4.286,4.286h6.667a1.429,1.429,0,0,0,0-2.857h-6.667a1.43,1.43,0,0,1-1.429-1.429V237.048a6.19,6.19,0,1,1,12.381,0v9.524A1.429,1.429,0,0,0,249.429,248h4.048a2.145,2.145,0,0,0,2.143-2.143v-5A2.384,2.384,0,0,0,253.238,238.476Zm-22.381,2.857h1.9v3.81h-1.9Zm21.9,3.81h-1.9v-3.81h1.9Z" transform="translate(-201.333 -201.333)" fill="#fff"/>
    </g>
  </g>
</svg>
