<svg xmlns="http://www.w3.org/2000/svg" width="817" height="1000" viewBox="0 0 817 1000">
  <g id="Tree_02" data-name="Tree 02" opacity="0.04">
    <path id="Контур_15" data-name="Контур 15" d="M568.938,519.076c-7.514-8.55-14.534-21.254-23.241-30.56-12.2,14.219-21.421,27.69-31.037,42.327,24.892,38.776,110.628,119,148.238,147.66,16.875,12.858,34.335,24.338,51.317,37.661.516-.276,1.043-.531,1.561-.811L774,683.977c-37.567-18.091-101.509-63.764-123.807-84.045C608.629,562.139,607.673,563.146,568.938,519.076Z" transform="translate(-77.861 226.524)" fill="#fff"/>
    <path id="Контур_16" data-name="Контур 16" d="M591.056,568.15c-12.837,26.449-54.347,84.72-76.9,102.358a28.141,28.141,0,0,1-10.1,4.758,486.966,486.966,0,0,0,60.365-4.51l56.934-74.367C615.1,581.825,603.319,574.62,591.056,568.15Z" transform="translate(-91.058 324.734)" fill="#fff"/>
    <path id="Контур_17" data-name="Контур 17" d="M625.633,1030.2c69.634-69.472,138.323-132.521,167.237-238.406,12.551-45.949,13.844-139.319-11.575-168.829-48.082,74.28-10.312,125.279-40.12,184.216-35.764-10.23-65.026-162.542,47.474-252.48,26.124-20.89,30.044-11.564,35.669-55.746,8.439-66.243,3.948-151.285,102.381-167.764l-16.608-43.72c-30.839,5.61-59.985,18.317-81.972,32.058-14.55-15.807-22.85-51.017-37.284-61.915-9.447,8.328-27.195,21.316-37.519,25.423,4.952,19.992,16.705,39.167,22.526,63.449,17.111,71.354-.172,161.1-45.227,188.79a48.017,48.017,0,0,1-5.275-6.032c-.617-.8-2.381-3.278-2.955-4.145a93.268,93.268,0,0,1-6-10.925c-47.169-92.727-59.874-173.619,15.742-252.457,17.842-18.6,49.087-29.84,74.756-46.329l1.4-28.963.866-14.143c-4.383-4.413,7.293-4.442-7.993-3.332-79.007,9.132-142.851,70.874-158.754,143.41l-3.013,8.487c-.018.031-4.415-2.924-4.469-2.939-20.5-13.346-64.25-39.687-97.762-33.925l-11.138,45.949c32.1,5.8,58.849,4.907,84.973,46.438,18.94,30.111,25.368,66.85,27.168,107.573-56.933-3.39-97.6-19.981-123.864-51.51-36.85-44.223-19.873-83.7-12.215-135.109l-46.3-24.61c-10.423,51.5-32.943,138.033,11.527,183.5,3.451,3.529,3.344,1.161,7.853,8.12,14.527,22.437-54.967,3.707-67.174-3.265-20.3-11.586-32.5-25.026-45.767-38.575l-43.015,23.456c20.816,52.653,117.006,81.549,185.06,78.887,53.609-2.1,63.074-18.085,114.7,2.339,35.261,13.951,55.512,27.987,77.076,50.541-12.7,46.442-34.358,69.393-34.815,148.656-.163,28.132,3.7,56.353,11.592,81.341,6.594,20.87,24.8,51.528,27.25,64.335l-69.1,78.514a1056.6,1056.6,0,0,1-84.441,85.589l-70.7,63.94,27.562,14.22c7.239,3.734,14.564,7.222,21.935,10.57Z" transform="translate(-319.211 -168.337)" fill="#fff"/>
    <path id="Контур_18" data-name="Контур 18" d="M557.177,580.654c-33.562,46.1-43.159,48.931-73.838,81.6l-38.078,37.545a484.819,484.819,0,0,0,49.653,10.477c3.876-7.205,7.4-9.187,16.633-16.428,31.82-24.975,91.385-97.477,103.525-133.406l-26.392-25.5C578.606,544.733,566.157,568.327,557.177,580.654Z" transform="translate(-163.624 283.777)" fill="#fff"/>
    <path id="Контур_1" data-name="Контур 1" d="M489.858,229.545c3.256-6.412,2.954-5.809,1.994-14.069l-6.871,2.108c10.463-.759,2.47-.739,5.471,2.281Z" transform="translate(-114.634 -110.207)" fill="#fff" fill-rule="evenodd"/>
    <path id="Контур_9" data-name="Контур 9" d="M684.426,348.955c6.393,48.816,23.319,92.324-11.014,134.312-26.151,31.976-63.237,43.683-119.749,45.77-5.382,24.409-4.346,36.228-12.657,60.128,96.29-43.6,119.548-6.588,182.929-9.043,53.491-2.072,123.812-48.983,138.409-80.064L847.062,485.17c-6.454-4.925-12.209-10.068-18.213-14.706-29.988,21.953-45.925,55.641-121.035,55.213.716-4.755,75.289-115.627,19.558-195.749Z" transform="translate(-45.345 30.947)" fill="#fff" fill-rule="evenodd"/>
    <path id="Контур_10" data-name="Контур 10" d="M724.1,325.968c-58.435-22.425-101.658,64.885-81.566,85.114C656.608,425.256,734.583,403.585,724.1,325.968Z" transform="translate(73.691 21.563)" fill="#fff" fill-rule="evenodd"/>
    <path id="Контур_11" data-name="Контур 11" d="M646.263,439.733c15.048-50.817-37.123-90.263-87.814-80.964-2.053,27.808,6.1,52.583,20.363,65.865C591.845,436.768,623.909,448.976,646.263,439.733Z" transform="translate(-24.323 64.83)" fill="#fff" fill-rule="evenodd"/>
    <path id="Контур_12" data-name="Контур 12" d="M554.739,271.128c51.326.192,87.187-41.769,69.919-96.753-22.256-9.433-51.329,13-60.218,24.525C549.625,218.106,547,244.532,554.739,271.128Z" transform="translate(-33.764 -163.683)" fill="#fff" fill-rule="evenodd"/>
    <path id="Контур_13" data-name="Контур 13" d="M394.159,428.188c56.209,2.369,91.09-29.917,82.057-88.493C423.173,329.376,383.687,373.833,394.159,428.188Z" transform="translate(-228.795 41.136)" fill="#fff" fill-rule="evenodd"/>
    <path id="Контур_14" data-name="Контур 14" d="M490.153,280.994c12.768-18,18.2-47.577,6.983-71.763-10.644-22.942-27.963-31.808-52.24-39.957C422.146,199.945,421.446,257.551,490.153,280.994Z" transform="translate(-181.117 -167.181)" fill="#fff" fill-rule="evenodd"/>
  </g>
</svg>
